<svg width="1616" height="341" viewBox="0 0 1616 341" fill="none" xmlns="http://www.w3.org/2000/svg">
<path d="M612.445 76.8812L653.708 56.4215L689.26 84.7503L715.699 126.853L715.269 174.855L713.049 219.595L708.193 264.032L699.873 308.361L657.407 303.841L660.454 267.818L613.293 266.809L605.975 319.163L560.126 316.008L564.424 266.137L565.863 214.994L575.353 164.565L581.077 116.496L612.432 76.8879L612.445 76.8812ZM623.55 168.203L615.647 219.85L663.44 224.498L671.296 171.748L671.753 133.532L659.553 119.98L649.484 113.099L637.573 117.774L624.518 130.048L623.55 168.21V168.203Z" fill="black"/>
<path d="M881.273 49.6554L919.132 27.3125L958.296 47.3418L990.856 86.3847L994.851 135.368L995.429 178.231L990.297 220.899L990.688 263.85L946.903 260.144L946.008 236.227L897.57 233.705L900.011 257.387L850.691 254.555L852.729 196.62L849.729 139.619L851.566 90.6757L881.273 49.6689V49.6554ZM898.962 138.2L895.559 192.705L945.013 189.1L945.336 136.774L942.807 99.6747L931.05 86.8488L920.558 76.3095L908.997 86.3107L899.655 100.919L898.955 138.207L898.962 138.2Z" fill="black"/>
<path d="M1097.88 98.9887L1096.8 114.909L1103.35 168.015L1105.72 221.478L1111.09 274.631L1060.33 270.246L1055.77 227.208L1053.22 183.525L1046.07 140.244L1042.45 95.8949L1019.87 67.1087L1061.23 30.7426L1083.87 53.3142L1122.59 31.5564L1155.99 46.6826L1186.87 71.2047L1192.48 91.9132L1200.08 140.265L1206.27 188.791L1214.53 237.041L1219.03 285.803L1227.47 334.86L1176.19 336.522L1168.79 290.921L1163.79 243.72L1152.97 197.326L1146.72 150.293L1141.26 103.152L1138.28 95.6057L1129.24 84.7638L1118.62 78.9191L1107.53 86.2838L1097.88 98.9887Z" fill="black"/>
<path d="M1123.86 299.517L1132.22 340.033L1084.73 334.948L1036.08 329.796L987.002 329.85L937.998 329.123L889.31 324.368L840.784 317.649L792.124 312.585L740.759 311.704L746.409 259.498L747.391 209.331L750.343 159.278L757.419 109.447L755.966 58.0424L809.442 56.408L803.147 108.956L803.221 162.049L796.381 214.732L797.914 267.092L843.764 274.732L890.763 279.669L938.025 281.633L985.455 281.673L1032.52 285.937L1079.06 295.185L1123.86 299.517Z" fill="black"/>
<path d="M484.475 126.389L491.106 125.717L507.894 121.493L512.467 108.136L517.431 103.535L513.274 87.1783L501.538 73.9151L484.69 65.7366L458.621 71.0499L462.374 97.6772L453.61 142.249L451.673 187.358L448.99 232.421L445.418 277.261L395.359 272.6L399.421 220.604L405.306 167.914L404.902 114.727L405.313 71.0298L389.884 38.7126L437.004 10.1887L453.086 36.9034L497.859 17.123L531.696 40.3469L562.648 76.0337L560.132 103.946L557.644 134.467L531.723 156.628L494.429 177.68L479.995 173.913L484.475 126.389Z" fill="black"/>
<path d="M1400.31 74.6146L1447.39 82.9478L1443.03 125.697L1439.29 169.891L1439.06 214.355L1438.43 258.833L1434.41 288.648L1446.79 307.722L1402.76 331.531L1382.09 267.085L1387.65 219.104L1389.33 170.746L1395.15 122.717L1400.31 74.6146ZM1436.45 1.39819L1451.23 17.4525L1461.82 33.9979L1446.06 45.9562L1427.86 58.1029L1409.82 45.5191L1401.79 25.6916L1417.05 11.5541L1436.44 1.39819H1436.45Z" fill="black"/>
<path d="M1315.61 140.85L1309.75 188.145L1306.2 234.452L1315.39 272.607L1344.99 298.898L1302.9 327.543L1271.52 292.011L1255.82 247.998L1264.81 193.109L1266.52 138.032L1249.33 136.061L1253.79 105.533L1269.52 99.2443L1271.21 68.3463L1256.4 42.4253L1300.99 14.0225L1322.02 47.5032L1320.39 85.5104L1320.87 98.0135L1361.4 102.116L1357.13 145.84L1315.61 140.85Z" fill="black"/>
<path d="M1561.89 312.101L1510.63 315.988L1507.64 268.37L1503.78 222.426L1497.75 176.684L1496.75 130.492L1486.99 102.392L1474.29 84.5485L1511.7 50.9602L1535.48 79.8204L1571.51 47.4023L1593.9 63.1943L1616 91.8258L1578.03 123.639L1573.06 103.495L1564.03 96.2244L1540.56 113.012L1546.74 162.823L1553.93 212.095L1558.65 261.577L1561.89 312.101Z" fill="black"/>
<path d="M14.1573 118.789C24.0845 118.971 61.7957 142.699 66.1943 124.123C63.3561 119.569 107.665 11.6885 88.4632 16.6589C84.3135 26.7206 -15.6512 107.429 14.164 118.796L14.1573 118.789ZM0.140828 152.99C4.78159 155.095 13.5587 254.172 28.6647 232.535C28.0997 222.15 67.6404 155.848 46.5484 151.221C36.0496 149.909 -2.68398 127.116 0.147553 152.99H0.140828ZM164.269 7.0545L234.694 84.5956C246.787 99.2577 270.307 61.3379 278.956 56.7174C284.445 51.3906 282.561 42.1965 275.446 39.4188C271.632 43.0103 151.847 -20.7766 164.269 7.04778V7.0545ZM306.653 81.2192C297.741 56.8183 273.044 94.3546 264.288 100.233C247.372 113.563 312.43 155.875 316.399 165.156C339.522 178.104 303.485 84.9318 306.653 81.2192ZM311.953 245.677L212.224 281.761C196.788 286.005 213.596 318.544 213.488 327.738C208.376 342.265 372.343 242.489 311.953 245.677ZM189.719 337.82C197.622 336.394 185.455 284.754 173.799 290.827C165.735 296.678 51.1892 292.569 59.6569 315.12C57.8073 328.262 182.731 334.988 189.719 337.82ZM48.129 284.014C196.015 267.415 186.975 285.87 87.0508 177.834C63.7394 154.597 45.4723 263.346 37.0853 269.957C34.4219 277.254 40.3809 284.881 48.129 284.014ZM325.135 202.451C314.401 200.177 250.675 110.987 239.819 142.134C243.377 147.71 191.185 265.33 215.849 258.153C222.319 249.161 349.025 226.522 325.135 202.457V202.451ZM188.273 241.904C221.176 121.742 252.349 114.081 112.266 151.194C104.417 153.023 101.484 162.668 106.966 168.526C113.618 168.936 181.07 264.032 188.273 241.904ZM101.928 132.052C244.877 99.7554 235.528 116.576 138.9 10.3636C133.391 4.075 121.157 7.01415 118.985 15.0312C122.509 25.3754 67.6538 138.327 101.928 132.052Z" fill="black"/>
</svg>
